<svg width="147" height="48" viewBox="0 0 147 48" fill="none" xmlns="http://www.w3.org/2000/svg">
<path d="M62.0824 31.5135V11.4673C62.0824 10.8264 61.6646 10.2569 61.049 10.0622L57.9411 9.07189C56.981 8.76559 56 9.47633 56 10.477V31.6131H56.006C56.1333 35.4939 58.4773 38.7383 62.4524 38.7383H64.6182C65.7056 38.7383 66.4245 37.6187 65.9662 36.6388L64.8159 34.184C64.705 33.9475 64.4759 33.787 64.2138 33.7617C62.2472 33.5714 62.0809 32.0131 62.0809 31.5135H62.0824Z" fill="#2A3551"/>
<path d="M81.7646 17.8163C80.9918 17.8163 80.3642 18.4274 80.3642 19.1827V31.0511C79.7996 32.7268 78.1865 33.9371 76.2798 33.9371C76.2468 33.9371 76.2139 33.9357 76.1809 33.9342C76.1624 33.9342 76.1439 33.9349 76.1251 33.9356C76.1061 33.9364 76.0867 33.9371 76.0671 33.9371C74.4945 33.9371 73.2199 32.6941 73.2199 31.1596L73.2184 31.1581V19.1827C73.2184 18.4289 72.5908 17.8163 71.8179 17.8163H69.3227C68.5498 17.8163 67.9222 18.4274 67.9222 19.1827V32.3938H67.9252C67.9747 36.05 70.7455 39 74.5049 39H74.6053C76.804 39 78.8155 38.2194 80.3657 36.9258V38.2566C80.3657 38.5584 80.6158 38.8037 80.9259 38.8037H84.5205C85.2934 38.8037 85.9209 38.1926 85.9209 37.4373V19.1827C85.9209 18.4289 85.2934 17.8163 84.5205 17.8163H81.7646Z" fill="#2A3551"/>
<path d="M93.4488 28.1606C93.4488 31.0868 95.6715 33.5907 98.4124 33.5907V33.5892C99.9071 33.5892 101.248 32.7506 102.157 31.634C102.62 31.066 103.422 30.9009 104.086 31.2176L106.253 32.251C106.96 32.5885 107.233 33.4613 106.824 34.1275C105.025 37.0626 101.938 38.9985 98.4318 38.9985C92.8811 38.9985 88.3803 34.1453 88.3803 28.1591C88.3803 22.1729 92.8811 17.3197 98.4318 17.3197C101.938 17.3197 105.025 19.2556 106.824 22.1907C107.233 22.8568 106.962 23.7296 106.253 24.0672L104.086 25.102C103.422 25.4188 102.62 25.2537 102.157 24.6857C101.248 23.5691 99.9071 22.7305 98.4124 22.7305C95.6715 22.7305 93.4488 25.2344 93.4488 28.1606Z" fill="#2A3551"/>
<path d="M118.76 33.5877C116.017 33.5877 113.793 31.0823 113.793 28.1546C113.793 25.2269 116.016 22.7215 118.76 22.7215C120.256 22.7215 121.596 23.5616 122.507 24.6783C122.97 25.2463 123.774 25.4128 124.438 25.0946L126.606 24.0597C127.315 23.7222 127.586 22.8494 127.179 22.1818C125.38 19.2452 122.29 17.3078 118.782 17.3078C113.227 17.3078 108.724 22.164 108.724 28.1531C108.724 34.1423 113.227 38.9985 118.782 38.9985C122.29 38.9985 125.38 37.0611 127.179 34.1245C127.587 33.4584 127.315 32.5841 126.606 32.2465L124.438 31.2117C123.774 30.895 122.97 31.06 122.507 31.6295C121.596 32.7461 120.256 33.5862 118.76 33.5862V33.5877Z" fill="#2A3551"/>
<path fill-rule="evenodd" clip-rule="evenodd" d="M139.277 17.4178C144.034 17.4178 147 19.9901 147 23.6806H146.998V37.2618C146.998 37.9874 146.405 38.5762 145.674 38.5762H142.273C141.979 38.5762 141.743 38.3398 141.743 38.0499V36.7503C141.559 36.9139 141.365 37.0537 141.168 37.1711C139.394 38.3636 137.676 38.9985 135.69 38.9985C132.248 38.9985 129.458 36.2284 129.458 32.8116C129.458 31.9982 129.618 31.2221 129.906 30.5099C130.264 29.5285 130.865 28.7553 131.607 28.1398C132.036 27.771 132.532 27.4796 133.033 27.2149C133.046 27.2083 133.059 27.2014 133.072 27.1942C133.609 26.9102 135.094 26.1236 139.277 25.4262C140.723 25.1749 141.744 24.989 141.744 24.989V24.1846C141.744 22.6992 140.061 22.0673 138.532 22.0673C136.695 22.0673 135.512 23.0026 134.711 24.1861C134.354 24.711 133.679 24.9192 133.092 24.6738L130.998 23.7995C130.24 23.4828 129.955 22.5669 130.396 21.877C132.214 19.0281 134.521 17.4178 139.277 17.4178ZM141.743 29.1315C141.743 29.1315 141.286 29.2088 139.282 29.7753H139.28C137.425 30.3002 136.414 30.7567 135.843 31.4377C135.572 31.7618 135.35 32.2376 135.35 32.7342C135.35 33.8167 136.236 34.6955 137.326 34.6955H137.53C138.142 34.6955 139.547 34.1245 140.708 33.4851C141.159 33.2368 141.424 33.0896 141.572 33.0064C141.678 32.9469 141.743 32.8354 141.743 32.7149V29.1315Z" fill="#2A3551"/>
<path d="M47.4135 36.801C46.5915 42.855 43.0035 46.6215 36.795 47.427C33.393 47.868 29.094 48 24 48C18.906 48 14.6175 47.7945 11.208 47.427C5.325 46.794 1.224 43.113 0.5895 36.807C0.2265 33.1995 0 28.7625 0 23.8155C0 18.8685 0.159 14.679 0.5835 11.1765C1.308 5.1915 4.983 1.1685 11.238 0.552C14.6805 0.213 18.9765 0 24 0C29.0235 0 33.327 0.1605 36.765 0.552C42.918 1.254 46.5915 5.277 47.4195 11.184C47.9055 14.6505 48 18.954 48 23.817C48 28.68 47.898 33.2385 47.4135 36.8025V36.801Z" fill="#FF7B3D"/>
<path fill-rule="evenodd" clip-rule="evenodd" d="M11.2185 17.2725C11.2185 10.2135 16.941 4.491 24 4.491C31.059 4.491 36.7815 10.2135 36.7815 17.2725C36.7815 22.6278 33.4879 27.2139 28.8158 29.1157C31.0766 30.6588 32.5635 33.2557 32.5635 36.1935C32.5635 38.901 31.3245 41.391 29.1645 43.0245C28.152 43.791 26.7105 43.5915 25.944 42.579C25.1775 41.5665 25.377 40.125 26.3895 39.3585C27.3915 38.601 27.966 37.4475 27.966 36.1935C27.966 34.008 26.187 32.229 24.0015 32.229C21.816 32.229 20.037 34.008 20.037 36.1935C20.037 37.4475 20.6115 38.601 21.6135 39.3585C22.626 40.125 22.8255 41.5665 22.0605 42.579C21.609 43.176 20.9205 43.491 20.2245 43.491H20.223C19.74 43.491 19.2525 43.3395 18.837 43.026C16.6755 41.391 15.4365 38.901 15.4365 36.1935C15.4365 33.2557 16.9234 30.6588 19.1842 29.1157C14.5121 27.2139 11.2185 22.6278 11.2185 17.2725ZM27.7695 23.7885C28.206 23.7885 28.644 23.643 29.007 23.343H29.004C30.8415 21.825 31.8945 19.5885 31.8945 17.2065C31.8945 12.8175 28.3245 9.2475 23.9355 9.2475C19.5465 9.2475 15.9765 12.8175 15.9765 17.2065C15.9765 19.587 17.0295 21.825 18.867 23.343C19.695 24.027 20.9205 23.9115 21.6045 23.0835C22.2885 22.2555 22.173 21.03 21.345 20.346C20.4045 19.569 19.866 18.4245 19.866 17.2065C19.866 14.961 21.6915 13.1355 23.937 13.1355C26.1825 13.1355 28.008 14.961 28.008 17.2065C28.008 18.4245 27.4695 19.569 26.529 20.346C25.701 21.03 25.5855 22.2555 26.2695 23.0835C26.655 23.5485 27.21 23.7885 27.7695 23.7885Z" fill="white"/>
</svg>
