<svg width="48" height="48" viewBox="0 0 48 48" fill="none" xmlns="http://www.w3.org/2000/svg">
  <g clip-path="url(#clip0_13_2)">
    <path
      d="M47.4135 36.801C46.5915 42.855 43.0035 46.6215 36.795 47.427C33.393 47.868 29.094 48 24 48C18.906 48 14.6175 47.7945 11.208 47.427C5.325 46.794 1.224 43.113 0.5895 36.807C0.2265 33.1995 0 28.7625 0 23.8155C0 18.8685 0.159 14.679 0.5835 11.1765C1.308 5.1915 4.983 1.1685 11.238 0.552C14.6805 0.213 18.9765 0 24 0C29.0235 0 33.327 0.1605 36.765 0.552C42.918 1.254 46.5915 5.277 47.4195 11.184C47.9055 14.6505 48 18.954 48 23.817C48 28.68 47.898 33.2385 47.4135 36.8025V36.801Z"
      fill="#FF7B3D" />
    <path fill-rule="evenodd" clip-rule="evenodd"
      d="M11.2185 17.2725C11.2185 10.2135 16.941 4.49103 24 4.49103C31.059 4.49103 36.7815 10.2135 36.7815 17.2725C36.7815 22.6278 33.4879 27.2139 28.8158 29.1157C31.0766 30.6588 32.5635 33.2557 32.5635 36.1935C32.5635 38.901 31.3245 41.391 29.1645 43.0245C28.152 43.791 26.7105 43.5915 25.944 42.579C25.1775 41.5665 25.377 40.125 26.3895 39.3585C27.3915 38.601 27.966 37.4475 27.966 36.1935C27.966 34.008 26.187 32.229 24.0015 32.229C21.816 32.229 20.037 34.008 20.037 36.1935C20.037 37.4475 20.6115 38.601 21.6135 39.3585C22.626 40.125 22.8255 41.5665 22.0605 42.579C21.609 43.176 20.9205 43.491 20.2245 43.491H20.223C19.74 43.491 19.2525 43.3395 18.837 43.026C16.6755 41.391 15.4365 38.901 15.4365 36.1935C15.4365 33.2557 16.9234 30.6588 19.1842 29.1157C14.5121 27.2139 11.2185 22.6278 11.2185 17.2725ZM27.7695 23.7885C28.206 23.7885 28.644 23.643 29.007 23.343H29.004C30.8415 21.825 31.8945 19.5885 31.8945 17.2065C31.8945 12.8175 28.3245 9.24753 23.9355 9.24753C19.5465 9.24753 15.9765 12.8175 15.9765 17.2065C15.9765 19.587 17.0295 21.825 18.867 23.343C19.695 24.027 20.9205 23.9115 21.6045 23.0835C22.2885 22.2555 22.173 21.03 21.345 20.346C20.4045 19.569 19.866 18.4245 19.866 17.2065C19.866 14.961 21.6915 13.1355 23.937 13.1355C26.1825 13.1355 28.008 14.961 28.008 17.2065C28.008 18.4245 27.4695 19.569 26.529 20.346C25.701 21.03 25.5855 22.2555 26.2695 23.0835C26.655 23.5485 27.21 23.7885 27.7695 23.7885Z"
      fill="white" />
  </g>
  <defs>
    <clipPath id="clip0_13_2">
      <rect width="48" height="48" fill="white" />
    </clipPath>
  </defs>
</svg>